<?xml version="1.0" encoding="utf-8"?>
<!-- Generator: Adobe Illustrator 22.1.0, SVG Export Plug-In . SVG Version: 6.00 Build 0)  -->
<svg version="1.1" id="Layer_1" xmlns="http://www.w3.org/2000/svg" xmlns:xlink="http://www.w3.org/1999/xlink" x="0px" y="0px"
	 viewBox="0 0 180.2 180.2" style="enable-background:new 0 0 180.2 180.2;" xml:space="preserve">
<style type="text/css">
	.st0{fill:#ED731A;}
	.st1{fill:none;stroke:#ED731A;stroke-width:3;}
</style>
<g>
	<path class="st0" d="M92,94.6c0.7-19.1,13.2-26.4,28.8-28c1.8-0.2,2.4,0.5,2.4,2.2c0,1.8,0.3,3.7-2.3,4.2c-2.6,0.6-5.1,1.3-7.6,2.3
		c-3.4,1.4-5.8,3.8-7.2,7.2c-1,2.6-0.7,3.8,2.6,3.8c7.7,0.1,12.7,4,13.9,10.3c1.2,6.4-1.9,12.6-7.6,15.3c-6.6,3-14.8,1.2-19-4.3
		C93.1,103.8,92.1,99.1,92,94.6z"/>
	<circle class="st1" cx="90.1" cy="90.1" r="88.3"/>
	<path class="st0" d="M57,94.6c0.7-19.1,13.2-26.4,28.8-28c1.8-0.2,2.4,0.5,2.4,2.2c0,1.8,0.3,3.7-2.3,4.2c-2.6,0.6-5.1,1.3-7.6,2.3
		c-3.4,1.4-5.8,3.8-7.2,7.2c-1,2.6-0.7,3.8,2.6,3.8c7.7,0.1,12.7,4,13.9,10.3c1.2,6.4-1.9,12.6-7.6,15.3c-6.6,3-14.8,1.2-19-4.3
		C58.1,103.8,57.1,99.1,57,94.6z"/>
</g>
</svg>
