<?xml version="1.0" standalone="no"?>
<!DOCTYPE svg PUBLIC "-//W3C//DTD SVG 20010904//EN"
 "http://www.w3.org/TR/2001/REC-SVG-20010904/DTD/svg10.dtd">
<svg version="1.0" xmlns="http://www.w3.org/2000/svg"
 width="1325.000000pt" height="1325.000000pt" viewBox="0 0 1325.000000 1325.000000"
 preserveAspectRatio="xMidYMid meet">
<metadata>
Created by potrace 1.11, written by Peter Selinger 2001-2013
</metadata>
<g transform="translate(0.000000,1325.000000) scale(0.100000,-0.100000)"
fill="#000000" stroke="none">
<path d="M865 6629 c0 -6501 0 -6619 19 -6613 10 4 42 20 70 37 60 35 620 358
686 395 25 13 72 40 105 60 48 28 373 215 565 325 19 11 49 28 65 38 17 10 41
24 55 32 14 7 88 50 165 94 77 44 156 90 175 101 42 24 200 115 330 190 144
82 156 89 228 130 37 21 127 74 201 116 74 43 151 87 170 98 46 26 260 150
286 165 11 7 26 15 34 19 7 4 52 30 100 57 108 62 494 285 751 432 324 186
516 297 695 400 145 84 505 290 600 345 112 64 439 253 481 277 28 17 61 34
72 38 12 3 22 11 22 16 0 5 4 9 8 9 5 0 150 81 323 181 173 99 337 194 364
209 28 15 127 73 220 127 94 55 177 102 185 106 8 4 29 16 47 27 26 15 332
192 483 278 37 21 385 221 825 474 149 86 288 166 310 178 22 12 198 113 390
225 391 226 475 274 555 318 30 16 62 36 71 43 8 8 18 14 21 14 3 0 167 93
364 206 438 252 408 235 472 273 29 17 55 31 58 31 3 0 18 8 32 18 15 11 52
32 82 49 30 17 109 62 175 100 66 38 140 81 165 95 25 14 90 51 145 83 55 32
156 90 224 129 122 68 124 70 101 85 -12 9 -113 68 -224 132 -110 64 -277 160
-371 214 -93 54 -183 105 -200 115 -16 9 -73 42 -125 72 -52 30 -115 66 -140
80 -25 14 -180 103 -345 198 -165 95 -313 181 -330 190 -16 10 -59 34 -95 55
-36 21 -90 51 -120 68 -30 17 -83 48 -118 69 -34 21 -64 38 -67 38 -3 0 -29
16 -59 35 -30 19 -57 35 -60 35 -3 0 -43 22 -88 49 -67 39 -436 252 -576 332
-61 35 -177 101 -212 121 -19 11 -107 62 -195 113 -88 51 -180 103 -205 117
-25 14 -110 63 -190 110 -80 46 -152 87 -160 91 -8 4 -33 18 -55 32 -22 14
-47 28 -55 32 -8 4 -43 24 -78 45 -34 21 -65 38 -68 38 -3 0 -18 8 -32 18 -15
11 -52 32 -82 49 -30 17 -100 56 -155 88 -55 32 -174 100 -265 153 -91 52
-190 109 -220 127 -30 18 -75 44 -100 57 -25 14 -142 81 -261 150 -118 68
-222 128 -230 131 -8 4 -27 15 -44 26 -16 10 -181 105 -365 211 -414 238 -397
228 -445 255 -22 13 -122 71 -223 129 -101 58 -185 106 -188 106 -2 0 -44 25
-93 55 -49 30 -91 55 -94 55 -4 0 -76 41 -157 90 -12 7 -146 84 -255 146 -11
6 -155 89 -320 184 -165 95 -316 182 -335 192 -19 11 -93 54 -165 96 -71 41
-146 84 -165 95 -19 11 -154 88 -300 172 -146 84 -458 264 -695 399 -236 136
-439 252 -450 258 -11 7 -96 56 -190 110 -93 54 -177 102 -185 107 -8 6 -49
29 -90 52 -41 23 -128 73 -192 110 -64 38 -121 69 -125 69 -5 0 -15 6 -21 12
-7 7 -42 29 -77 48 -35 19 -157 89 -271 155 -114 66 -228 132 -253 146 -25 14
-100 57 -166 95 -66 39 -127 73 -135 76 -13 5 -15 -732 -15 -6613z"/>
</g>
</svg>
